# xmcd
#
# Track frame offsets: 
#        150
#        15122
#        32056
#        51104
#        66903
#        82483
#
# Disc length: 1434 seconds
#
# Revision: 0
# Processed by: cddbd v1.5.2PL0 Copyright (c) Steve Scherf et al.
# Submitted via: ExactAudioCopy v0.99pb4
#
DISCID=47059806
DTITLE=Gerry Gillard - Where The Wild Winds Blow
DYEAR=1997
DGENRE=Blues
TTITLE0=Living
TTITLE1=Safe in your Arms
TTITLE2=Change of Mind
TTITLE3=Celtic Heart
TTITLE4=Changes
TTITLE5=Where The Wild Winds Blow
EXTD=
EXTT0=
EXTT1=
EXTT2=
EXTT3=
EXTT4=
EXTT5=
PLAYORDER=
